<?xml version="1.0" encoding="UTF-8"?>
<svg version="1.1" xmlns="http://www.w3.org/2000/svg" width="16" height="17">
<path d="M0 0 C7.2 -0.48 7.2 -0.48 10.5 1.5 C12.61584485 5.02640809 12.80730018 7.98821239 12 12 C9.95694308 15.06458538 8.55920198 15.82153128 5.0625 16.9375 C1.40127319 17.01221891 -0.1304674 16.21363944 -3 14 C-4.60725635 10.78548731 -4.05748185 7.56387464 -4 4 C-3.01 3.67 -2.02 3.34 -1 3 C-0.67 2.01 -0.34 1.02 0 0 Z M3 4 C1.35444301 5.22809091 1.35444301 5.22809091 0 7 C0.22757731 9.16299211 0.22757731 9.16299211 1 11 C2.83700789 11.77242269 2.83700789 11.77242269 5 12 C6.77190909 10.64555699 6.77190909 10.64555699 8 9 C7.20882096 7.00016466 7.20882096 7.00016466 6 5 C5.01 4.67 4.02 4.34 3 4 Z " fill="#C678F7" transform="translate(4,0)"/>
<path d="M0 0 C7.30434783 -0.48695652 7.30434783 -0.48695652 10.5 1.75 C12 4 12 4 12 8 C9.6875 8.1875 9.6875 8.1875 7 8 C6 7 5 6 4 5 C0.89160979 4.2730774 0.89160979 4.2730774 -2 4 C-1.34 2.68 -0.68 1.36 0 0 Z " fill="#F342C8" transform="translate(4,0)"/>
<path d="M0 0 C2.00720923 0.28674418 4.0085944 0.61866701 6 1 C5.67 1.99 5.34 2.98 5 4 C4.34 4 3.68 4 3 4 C3.26676204 5.98491642 3.26676204 5.98491642 4 8 C4.99 8.33 5.98 8.66 7 9 C5 11 5 11 2.375 11.125 C1.59125 11.08375 0.8075 11.0425 0 11 C-1.62651522 7.74696956 -1.11453156 4.60774398 -1 1 C-0.67 0.67 -0.34 0.34 0 0 Z " fill="#D368E9" transform="translate(1,3)"/>
<path d="M0 0 C1.32 0 2.64 0 4 0 C3.67 1.98 3.34 3.96 3 6 C0.03 5.505 0.03 5.505 -3 5 C-1.75 2.5 -1.75 2.5 0 0 Z " fill="#D566E7" transform="translate(12,8)"/>
<path d="M0 0 C1.98 0 3.96 0 6 0 C6 1.32 6 2.64 6 4 C4.35 4 2.7 4 1 4 C0.67 2.68 0.34 1.36 0 0 Z " fill="#E94FD3" transform="translate(10,4)"/>
</svg>
